<?xml version="1.0" encoding="UTF-8"?>
<svg xmlns="http://www.w3.org/2000/svg" xmlns:xlink="http://www.w3.org/1999/xlink" width="841.61pt" height="595.28pt" viewBox="0 0 841.61 595.28" version="1.1">
<defs>
<clipPath id="clip1">
  <path d="M 0 0 L 841.609375 0 L 841.609375 595.28125 L 0 595.28125 Z M 0 0 "/>
</clipPath>
</defs>
<g id="surface1">
<g clip-path="url(#clip1)" clip-rule="nonzero">
<path style=" stroke:none;fill-rule:nonzero;fill:rgb(100%,100%,100%);fill-opacity:1;" d="M 0 595.28125 L 841.605469 595.28125 L 841.605469 0.00390625 L 0 0.00390625 Z M 0 595.28125 "/>
</g>
<path style=" stroke:none;fill-rule:nonzero;fill:rgb(11.799622%,37.599182%,63.499451%);fill-opacity:1;" d="M 299.820313 351.964844 C 307.886719 352.527344 372.484375 352.265625 374.28125 351.699219 C 374.667969 346.148438 373.746094 276.871094 373.207031 275.285156 C 348.804688 300.785156 324.457031 326.222656 299.820313 351.964844 M 581.882813 351.988281 C 582.121094 283.792969 582.363281 215.703125 582.601563 147.71875 C 581.675781 147.183594 580.867188 147.214844 580.078125 147.183594 C 576.617188 147.035156 573.175781 147.351563 569.882813 148.371094 C 553.066406 153.589844 541.511719 164.546875 535.074219 180.859375 C 532.949219 186.242188 532.597656 191.847656 533.882813 197.585938 C 536.503906 209.28125 541.96875 219.390625 550.320313 227.953125 C 553.476563 231.195313 557.050781 233.839844 561.949219 235.214844 C 560.597656 235.492188 559.695313 235.675781 558.796875 235.855469 C 554.207031 236.785156 549.871094 238.332031 546.046875 241.113281 C 542.140625 243.949219 539.527344 247.671875 538.503906 252.414063 C 538.011719 254.683594 537.925781 257.003906 537.929688 259.332031 C 537.949219 287.398438 537.957031 315.46875 537.96875 343.535156 C 537.96875 346.316406 537.96875 349.09375 537.96875 351.988281 Z M 337.132813 203.148438 C 337.925781 202.15625 338.808594 201.953125 339.546875 201.542969 C 355.882813 192.496094 367.300781 179.382813 372.511719 161.277344 C 374.894531 152.992188 375.910156 144.535156 374.472656 135.910156 C 372.554688 124.425781 367.410156 114.5625 359.414063 106.210938 C 348.398438 94.710938 334.90625 87.734375 319.332031 84.597656 C 305.253906 81.761719 292.1875 84.277344 279.957031 91.652344 C 275.902344 94.097656 272.078125 96.847656 268.558594 100.007813 C 259.359375 108.265625 252.207031 117.945313 248.238281 129.773438 C 246.390625 135.289063 245.308594 140.964844 246.1875 146.769531 C 249.0625 165.796875 257.675781 181.851563 271.71875 194.96875 C 275.125 198.152344 278.996094 200.714844 283.605469 201.941406 C 283.894531 202.019531 284.21875 202.113281 284.335938 202.460938 C 284.308594 202.511719 284.289063 202.601563 284.253906 202.609375 C 283.9375 202.660156 283.621094 202.695313 283.304688 202.742188 C 276.347656 203.796875 269.769531 205.878906 263.917969 209.910156 C 257.894531 214.0625 254.109375 219.703125 252.929688 226.949219 C 252.378906 230.34375 252.394531 233.804688 252.382813 237.242188 C 252.265625 273.152344 252.214844 309.058594 252.605469 344.96875 C 252.613281 345.449219 252.296875 346.105469 253.136719 346.429688 C 292.582031 305.097656 332.03125 263.753906 371.429688 222.472656 C 367.828125 213.070313 361.214844 207.4375 351.96875 204.738281 C 347.242188 203.359375 342.390625 202.992188 337.132813 203.148438 M 611.53125 382.066406 C 612.054688 379.242188 611.929688 60.0625 611.394531 58.285156 L 609.527344 58.285156 C 587.6875 58.285156 565.847656 58.304688 544.011719 58.246094 C 542.476563 58.242188 541.519531 58.800781 540.519531 59.847656 C 512.769531 88.976563 485 118.085938 457.214844 147.183594 C 434.789063 170.671875 412.324219 194.117188 389.90625 217.613281 C 365.832031 242.84375 341.796875 268.109375 317.730469 293.351563 C 299.628906 312.335938 281.507813 331.308594 263.40625 350.296875 C 262.945313 350.777344 262.222656 351.121094 262.261719 352.109375 C 263.011719 352.109375 263.722656 352.109375 264.429688 352.109375 C 270.75 352.113281 277.070313 352.058594 283.390625 352.148438 C 285.054688 352.175781 286.203125 351.660156 287.339844 350.464844 C 297.808594 339.449219 308.324219 328.476563 318.839844 317.507813 C 337.164063 298.398438 355.515625 279.316406 373.820313 260.191406 C 390.574219 242.683594 407.273438 225.117188 424.019531 207.601563 C 450 180.429688 476 153.28125 501.996094 126.121094 C 517.703125 109.710938 533.417969 93.308594 549.113281 76.890625 C 550.078125 75.882813 550.988281 75.152344 552.566406 75.160156 C 565.363281 75.234375 578.164063 75.199219 590.964844 75.210938 C 591.582031 75.210938 592.257813 75.035156 592.796875 75.59375 C 593.121094 76.421875 592.964844 77.308594 592.960938 78.175781 C 592.878906 91.535156 592.734375 104.890625 592.699219 118.246094 C 592.578125 162.722656 592.59375 207.195313 592.226563 251.671875 C 592.101563 266.550781 592.179688 281.429688 592.140625 296.308594 C 592.085938 317.507813 592.015625 338.703125 591.9375 359.90625 C 591.9375 360.605469 592.128906 361.351563 591.480469 362.226563 L 252.914063 362.226563 C 252.519531 365.390625 252.691406 380.179688 253.136719 382.066406 Z M 582.5625 85.261719 C 581.648438 85.261719 580.859375 85.261719 580.066406 85.261719 C 572.550781 85.261719 565.027344 85.316406 557.511719 85.222656 C 555.75 85.199219 554.554688 85.730469 553.351563 86.996094 C 543.613281 97.269531 533.808594 107.480469 524.019531 117.707031 C 495.488281 147.519531 466.957031 177.335938 438.425781 207.144531 C 424.546875 221.648438 410.671875 236.15625 396.75 250.617188 C 395.539063 251.871094 395.035156 253.164063 395.042969 254.863281 C 395.058594 259.496094 394.921875 264.136719 394.941406 268.773438 C 394.972656 276.128906 395.117188 283.488281 395.144531 290.84375 C 395.210938 310.597656 395.546875 330.347656 395.859375 350.097656 C 395.867188 350.710938 395.667969 351.378906 396.140625 351.921875 C 400.050781 352.410156 514.554688 352.203125 516.25 351.695313 C 516.269531 351.320313 516.308594 350.925781 516.308594 350.53125 C 516.339844 318.617188 516.394531 286.699219 516.382813 254.785156 C 516.382813 246.214844 520.761719 239.941406 528.929688 237.246094 C 530.117188 236.851563 531.332031 236.535156 532.742188 236.121094 C 531.078125 234.171875 529.460938 232.429688 528.011719 230.554688 C 517.488281 216.925781 511.941406 201.734375 513.875 184.316406 C 515.503906 169.660156 521.875 157.28125 532.5625 147.203125 C 544.816406 135.652344 559.648438 129.996094 576.296875 128.765625 C 578.347656 128.613281 580.398438 128.488281 582.40625 128.351563 C 582.707031 126.179688 582.875 87.25 582.5625 85.261719 M 621.886719 48.1875 C 621.894531 49.066406 621.902344 49.945313 621.902344 50.824219 C 621.902344 163.464844 621.902344 276.105469 621.902344 388.746094 L 621.902344 391.808594 C 620.183594 392.320313 227.851563 392.601563 223.523438 392.136719 C 223.007813 391.511719 223.195313 390.761719 223.199219 390.0625 C 223.261719 367.90625 223.335938 345.75 223.40625 323.59375 C 223.414063 321.035156 223.40625 318.472656 223.410156 315.914063 C 223.421875 286.953125 223.582031 257.992188 223.363281 229.035156 C 223.285156 218.433594 228.503906 207.808594 243.058594 204.265625 C 243.832031 204.074219 244.644531 204.035156 245.429688 203.554688 C 245.03125 202.667969 244.234375 202.113281 243.613281 201.425781 C 232.335938 188.957031 224.339844 174.726563 221.074219 158.144531 C 216.679688 135.835938 221.046875 115.195313 233.980469 96.53125 C 246.140625 78.992188 263.003906 67.976563 283.375 62.164063 C 294.222656 59.070313 305.324219 57.742188 316.589844 58.40625 C 336.941406 59.601563 355.027344 66.761719 370.808594 79.660156 C 380.332031 87.445313 388.0625 96.738281 393.855469 107.613281 C 402.53125 123.902344 404.808594 141.027344 400.433594 158.964844 C 397.101563 172.628906 391.378906 185.226563 383.210938 196.691406 C 381.398438 199.230469 379.347656 201.574219 377.066406 204.023438 C 379.875 205.316406 382.6875 206.183594 385.054688 207.691406 C 386.0625 207.375 386.496094 206.660156 387.035156 206.097656 C 419.566406 172.019531 452.09375 137.9375 484.617188 103.855469 C 501.679688 85.976563 518.742188 68.097656 535.792969 50.203125 C 536.382813 49.585938 537.191406 49.113281 537.40625 48.1875 "/>
<path style=" stroke:none;fill-rule:nonzero;fill:rgb(11.799622%,37.599182%,63.499451%);fill-opacity:1;" d="M 263.03125 147.308594 C 263.492188 147.792969 264.191406 148.546875 264.910156 149.277344 C 268.660156 153.105469 272.382813 156.964844 276.191406 160.734375 C 277.183594 161.714844 277.589844 162.71875 277.585938 164.101563 C 277.574219 169.457031 277.644531 174.816406 277.71875 180.175781 C 277.730469 181.097656 277.476563 182.089844 278.132813 182.957031 C 278.636719 182.980469 279.113281 183.027344 279.589844 183.019531 C 285.265625 182.949219 290.945313 182.925781 296.617188 182.75 C 298.03125 182.703125 299.019531 183.113281 300.019531 184.050781 C 303.230469 187.054688 306.511719 189.988281 309.78125 192.929688 C 310.304688 193.398438 310.71875 194.042969 311.5 194.1875 C 312.261719 193.863281 312.726563 193.1875 313.289063 192.632813 C 316.253906 189.71875 319.238281 186.816406 322.144531 183.84375 C 323.046875 182.917969 323.972656 182.476563 325.28125 182.503906 C 328.320313 182.566406 331.363281 182.523438 334.402344 182.464844 C 337.65625 182.402344 340.910156 182.273438 344.066406 182.175781 C 344.578125 181.21875 344.386719 180.40625 344.375 179.628906 C 344.289063 172.992188 344.230469 166.355469 344.054688 159.71875 C 344.011719 158.070313 344.453125 156.886719 345.683594 155.742188 C 349.304688 152.375 352.800781 148.875 356.320313 145.453125 C 355.953125 144.636719 355.3125 144.261719 354.773438 143.796875 C 351.082031 140.609375 347.433594 137.363281 343.644531 134.289063 C 342.253906 133.160156 341.695313 131.941406 341.730469 130.210938 C 341.789063 127.171875 341.757813 124.128906 341.675781 121.089844 C 341.59375 118 341.792969 114.894531 341.480469 111.902344 C 340.714844 111.457031 340.070313 111.632813 339.445313 111.644531 C 334.089844 111.734375 328.730469 111.769531 323.378906 111.960938 C 321.859375 112.015625 320.851563 111.515625 319.835938 110.464844 C 316.722656 107.242188 313.519531 104.109375 310.351563 100.941406 C 309.566406 100.160156 308.773438 99.390625 308.027344 98.660156 C 307.148438 98.992188 306.78125 99.640625 306.304688 100.15625 C 303.113281 103.628906 299.863281 107.058594 296.78125 110.628906 C 295.714844 111.863281 294.550781 112.28125 293.039063 112.273438 C 290.71875 112.265625 288.398438 112.261719 286.082031 112.355469 C 283.472656 112.464844 280.835938 112.191406 278.320313 112.609375 C 277.917969 113.347656 278.039063 113.996094 278.046875 114.621094 C 278.082031 118.542969 278.148438 122.460938 278.179688 126.378906 C 278.191406 128.132813 278.5625 130.046875 277.992188 131.601563 C 277.386719 133.257813 275.535156 134.253906 274.261719 135.574219 C 270.554688 139.429688 266.863281 143.300781 263.03125 147.308594 M 272.246094 106.269531 C 277.105469 106.269531 281.890625 106.292969 286.679688 106.257813 C 288.660156 106.242188 290.871094 106.824219 292.5625 105.894531 C 294.160156 105.019531 295.261719 103.222656 296.558594 101.8125 C 299.910156 98.160156 303.246094 94.492188 306.59375 90.835938 C 306.914063 90.484375 307.199219 90.085938 307.714844 89.941406 C 308.46875 90.253906 308.933594 90.933594 309.492188 91.488281 C 313.796875 95.773438 318.125 100.042969 322.363281 104.398438 C 323.402344 105.464844 324.445313 105.898438 325.929688 105.859375 C 332.320313 105.6875 338.714844 105.617188 345.109375 105.527344 C 345.820313 105.515625 346.550781 105.40625 347.238281 105.691406 C 347.816406 106.195313 347.625 106.875 347.632813 107.488281 C 347.703125 114.203125 347.820313 120.921875 347.78125 127.636719 C 347.769531 129.253906 348.3125 130.292969 349.5 131.292969 C 354.328125 135.367188 359.09375 139.515625 363.875 143.640625 C 364.351563 144.050781 364.808594 144.484375 365.59375 145.195313 C 364.558594 146.105469 363.570313 146.90625 362.65625 147.785156 C 358.972656 151.335938 355.355469 154.953125 351.609375 158.441406 C 350.496094 159.476563 350.132813 160.535156 350.164063 162 C 350.324219 169.992188 350.402344 177.984375 350.5 185.976563 C 350.507813 186.683594 350.625 187.410156 350.140625 188.335938 C 348.964844 188.335938 347.703125 188.332031 346.445313 188.335938 C 340.445313 188.355469 334.449219 188.433594 328.453125 188.359375 C 326.792969 188.339844 325.636719 188.863281 324.492188 190.046875 C 320.824219 193.835938 317.039063 197.519531 313.289063 201.230469 C 312.785156 201.730469 312.375 202.351563 311.488281 202.675781 C 308.179688 199.679688 304.820313 196.625 301.445313 193.582031 C 299.726563 192.03125 298.210938 189.996094 296.191406 189.097656 C 294.167969 188.199219 291.628906 188.875 289.3125 188.890625 C 284.359375 188.929688 279.402344 189.039063 274.449219 189.113281 C 273.660156 189.121094 272.859375 189.285156 272.015625 188.929688 C 271.585938 187.992188 271.6875 186.945313 271.675781 185.921875 C 271.609375 179.527344 271.515625 173.132813 271.546875 166.734375 C 271.554688 165.25 271.121094 164.199219 270.082031 163.160156 C 265.167969 158.242188 260.320313 153.25 255.449219 148.28125 C 255.0625 147.886719 254.691406 147.472656 254.332031 147.089844 C 254.378906 146.28125 255 145.960938 255.429688 145.539063 C 260.445313 140.609375 265.453125 135.664063 270.527344 130.792969 C 271.648438 129.714844 272.160156 128.617188 272.121094 127.035156 C 271.984375 121.28125 271.96875 115.523438 271.933594 109.769531 C 271.929688 108.742188 271.75 107.699219 272.246094 106.269531 "/>
<path style=" stroke:none;fill-rule:nonzero;fill:rgb(11.799622%,37.599182%,63.499451%);fill-opacity:1;" d="M 59.910156 450.957031 C 62.003906 446.222656 65.984375 442.441406 71.839844 439.613281 C 77.269531 436.988281 83.175781 435.675781 89.554688 435.675781 C 95.746094 435.675781 101.75 437.027344 107.558594 439.734375 C 113.796875 442.679688 117.988281 446.421875 120.132813 450.957031 Z M 114.453125 437.644531 C 107.191406 432.988281 98.796875 430.660156 89.273438 430.660156 C 84.078125 430.660156 78.722656 431.613281 73.199219 433.523438 C 67.433594 435.515625 62.910156 438.0625 59.625 441.164063 L 59.625 411.015625 L 53.339844 411.015625 L 53.339844 450.957031 L 45.125 450.957031 L 45.125 456.152344 L 129.488281 456.152344 C 126.726563 448.46875 121.714844 442.300781 114.453125 437.644531 "/>
<path style=" stroke:none;fill-rule:nonzero;fill:rgb(11.799622%,37.599182%,63.499451%);fill-opacity:1;" d="M 154.101563 458.71875 C 153.003906 458.71875 152.003906 459.085938 151.097656 459.824219 C 150.191406 460.558594 149.742188 461.382813 149.742188 462.300781 C 149.742188 463.136719 150.21875 463.949219 151.171875 464.746094 C 152.121094 465.542969 153.101563 465.941406 154.101563 465.941406 C 155.195313 465.941406 156.183594 465.5625 157.0625 464.808594 C 157.945313 464.050781 158.386719 463.214844 158.386719 462.300781 C 158.386719 461.382813 157.945313 460.558594 157.0625 459.824219 C 156.183594 459.085938 155.195313 458.71875 154.101563 458.71875 "/>
<path style=" stroke:none;fill-rule:nonzero;fill:rgb(11.799622%,37.599182%,63.499451%);fill-opacity:1;" d="M 141.992188 451.003906 L 141.992188 411.015625 L 135.777344 411.015625 L 135.777344 456.152344 L 141.992188 456.152344 L 141.992188 456.144531 C 148.304688 455.382813 152.9375 451.878906 155.886719 445.644531 C 158.027344 441.066406 159.097656 435.535156 159.097656 429.046875 L 152.882813 429.046875 C 152.882813 441.761719 149.253906 449.078125 141.992188 451.003906 "/>
<path style=" stroke:none;fill-rule:nonzero;fill:rgb(11.799622%,37.599182%,63.499451%);fill-opacity:1;" d="M 186.277344 412.269531 L 186.207031 420.328125 C 186.160156 423.078125 186.136719 424.945313 186.136719 425.941406 C 186.136719 440.042969 183.214844 448.328125 177.386719 450.8125 L 177.386719 428.867188 L 171.242188 428.867188 L 171.242188 444.988281 C 171.242188 459.515625 167.980469 468.609375 161.457031 472.269531 L 170.101563 472.269531 C 174.285156 468.152344 176.65625 462.773438 177.234375 456.144531 C 182.601563 455.226563 186.210938 452.921875 188.066406 449.226563 C 190.875 443.613281 192.28125 438.160156 192.28125 432.867188 L 192.28125 410.957031 L 186.136719 410.957031 C 186.136719 411.117188 186.183594 411.554688 186.277344 412.269531 "/>
<path style=" stroke:none;fill-rule:nonzero;fill:rgb(11.799622%,37.599182%,63.499451%);fill-opacity:1;" d="M 203.746094 451.003906 L 203.746094 411.015625 L 197.53125 411.015625 L 197.53125 456.152344 L 203.746094 456.152344 L 203.746094 456.144531 C 210.0625 455.382813 214.691406 451.878906 217.640625 445.644531 C 219.78125 441.066406 220.855469 435.535156 220.855469 429.046875 L 214.640625 429.046875 C 214.640625 441.761719 211.007813 449.078125 203.746094 451.003906 "/>
<path style=" stroke:none;fill-rule:nonzero;fill:rgb(11.799622%,37.599182%,63.499451%);fill-opacity:1;" d="M 215.855469 458.71875 C 214.757813 458.71875 213.757813 459.085938 212.851563 459.824219 C 211.949219 460.558594 211.496094 461.382813 211.496094 462.300781 C 211.496094 463.136719 211.972656 463.949219 212.925781 464.746094 C 213.878906 465.542969 214.855469 465.941406 215.855469 465.941406 C 216.949219 465.941406 217.9375 465.5625 218.820313 464.808594 C 219.699219 464.050781 220.140625 463.214844 220.140625 462.300781 C 220.140625 461.382813 219.699219 460.558594 218.820313 459.824219 C 217.9375 459.085938 216.949219 458.71875 215.855469 458.71875 "/>
<path style=" stroke:none;fill-rule:nonzero;fill:rgb(11.799622%,37.599182%,63.499451%);fill-opacity:1;" d="M 313.71875 443.046875 C 310.0625 447.074219 306.242188 449.707031 302.253906 450.945313 L 302.253906 429.046875 L 296.109375 429.046875 C 296.109375 431.074219 295.871094 432.988281 295.394531 434.777344 C 293.539063 441.742188 290.015625 446.539063 284.824219 449.164063 L 284.824219 429.046875 L 278.820313 429.046875 C 278.820313 433.347656 277.917969 437.265625 276.109375 440.808594 C 274.0625 444.828125 271.035156 447.8125 267.035156 449.765625 L 267.035156 429.046875 L 260.75 429.046875 L 260.75 462.183594 C 254.890625 458.160156 250.582031 453.984375 247.820313 449.644531 C 242.960938 442 240.53125 435.515625 240.53125 430.183594 L 234.316406 430.183594 C 234.316406 434.402344 235.175781 438.519531 236.890625 442.539063 C 242.652344 456.070313 252.652344 465.804688 266.894531 471.734375 L 266.894531 455.257813 C 271.988281 453.503906 275.964844 450.898438 278.820313 447.433594 L 278.820313 456.746094 C 285.964844 455.554688 291.730469 452.230469 296.109375 446.777344 L 296.109375 456.152344 L 302.253906 456.152344 L 302.253906 456.144531 C 305.105469 455.78125 308.328125 454.390625 311.933594 451.972656 C 315.125 449.78125 317.625 447.492188 319.433594 445.105469 L 319.433594 459.433594 C 317.195313 458.480469 315.742188 457.386719 315.078125 456.152344 L 307.71875 456.152344 C 309.71875 458.738281 312.289063 461.066406 315.433594 463.136719 C 319.054688 465.523438 322.386719 467.035156 325.4375 467.675781 L 325.4375 431.734375 L 319.21875 431.734375 C 319.21875 435.234375 317.386719 439.007813 313.71875 443.046875 "/>
<path style=" stroke:none;fill-rule:nonzero;fill:rgb(11.799622%,37.599182%,63.499451%);fill-opacity:1;" d="M 346.222656 425.824219 C 347.316406 425.824219 348.316406 425.453125 349.222656 424.71875 C 350.128906 423.980469 350.582031 423.15625 350.582031 422.242188 C 350.582031 421.40625 350.105469 420.589844 349.152344 419.792969 C 348.199219 418.996094 347.222656 418.597656 346.222656 418.597656 C 345.128906 418.597656 344.140625 418.976563 343.257813 419.734375 C 342.378906 420.488281 341.9375 421.324219 341.9375 422.242188 C 341.9375 423.15625 342.378906 423.980469 343.257813 424.71875 C 344.140625 425.453125 345.128906 425.824219 346.222656 425.824219 "/>
<path style=" stroke:none;fill-rule:nonzero;fill:rgb(11.799622%,37.599182%,63.499451%);fill-opacity:1;" d="M 409.90625 412.269531 L 409.835938 420.328125 C 409.789063 423.078125 409.765625 424.945313 409.765625 425.941406 C 409.765625 440.191406 406.789063 448.507813 400.835938 450.898438 L 400.835938 450.917969 C 394.175781 443.613281 385.828125 438.09375 375.796875 434.359375 C 366.273438 430.816406 355.746094 429.046875 344.222656 429.046875 L 344.222656 434.242188 C 353.699219 434.242188 362.558594 435.574219 370.796875 438.242188 C 379.75 441.144531 387.132813 445.386719 392.941406 450.957031 L 336.828125 450.957031 L 336.828125 411.015625 L 330.613281 411.015625 L 330.613281 456.152344 L 400.871094 456.152344 L 400.871094 456.144531 C 406.230469 455.222656 409.839844 452.917969 411.695313 449.226563 C 414.503906 443.613281 415.910156 438.160156 415.910156 432.867188 L 415.910156 410.957031 L 409.765625 410.957031 C 409.765625 411.117188 409.8125 411.554688 409.90625 412.269531 "/>
<path style=" stroke:none;fill-rule:nonzero;fill:rgb(11.799622%,37.599182%,63.499451%);fill-opacity:1;" d="M 420.945313 457.136719 C 423.183594 456.660156 425.257813 455.980469 427.160156 455.105469 L 427.160156 410.03125 L 420.945313 410.03125 "/>
<path style=" stroke:none;fill-rule:nonzero;fill:rgb(11.799622%,37.599182%,63.499451%);fill-opacity:1;" d="M 565.710938 443.046875 C 562.050781 447.078125 558.226563 449.710938 554.234375 450.949219 C 547.566406 443.628906 539.214844 438.101563 529.171875 434.359375 C 519.644531 430.816406 509.117188 429.046875 497.59375 429.046875 L 497.59375 434.242188 C 507.070313 434.242188 515.929688 435.574219 524.167969 438.242188 C 533.121094 441.144531 540.503906 445.386719 546.3125 450.957031 L 490.238281 450.957031 L 490.238281 431.734375 L 484.023438 431.734375 C 484.023438 435.234375 482.1875 439.007813 478.523438 443.046875 C 474.878906 447.058594 471.074219 449.683594 467.105469 450.929688 C 466.542969 445.664063 465.113281 440.9375 462.804688 436.746094 C 459.1875 430.261719 453.757813 425.644531 446.519531 422.898438 L 446.519531 428.746094 C 450.804688 431.214844 454.28125 434.441406 456.949219 438.417969 C 459.710938 442.558594 461.09375 446.738281 461.09375 450.957031 L 442.804688 450.957031 L 442.804688 456.152344 L 467.378906 456.152344 C 467.378906 456.132813 467.375 456.113281 467.375 456.09375 C 470.144531 455.667969 473.261719 454.300781 476.734375 451.972656 C 479.925781 449.78125 482.425781 447.492188 484.238281 445.105469 L 484.238281 459.433594 C 482 458.480469 480.546875 457.386719 479.878906 456.152344 L 472.519531 456.152344 C 474.519531 458.738281 477.09375 461.066406 480.238281 463.136719 C 483.855469 465.523438 487.1875 467.035156 490.238281 467.675781 L 490.238281 456.152344 L 554.242188 456.152344 L 554.242188 456.144531 C 557.09375 455.78125 560.316406 454.390625 563.921875 451.972656 C 567.113281 449.78125 569.613281 447.492188 571.421875 445.105469 L 571.421875 459.433594 C 569.183594 458.480469 567.730469 457.386719 567.066406 456.152344 L 559.707031 456.152344 C 561.707031 458.738281 564.28125 461.066406 567.421875 463.136719 C 571.042969 465.523438 574.375 467.035156 577.425781 467.675781 L 577.425781 431.734375 L 571.210938 431.734375 C 571.210938 435.234375 569.375 439.007813 565.710938 443.046875 "/>
<path style=" stroke:none;fill-rule:nonzero;fill:rgb(11.799622%,37.599182%,63.499451%);fill-opacity:1;" d="M 629.859375 423.195313 C 630.859375 423.195313 631.773438 422.859375 632.609375 422.179688 C 633.441406 421.503906 633.859375 420.746094 633.859375 419.910156 C 633.523438 417.644531 632.191406 416.507813 629.859375 416.507813 C 628.808594 416.507813 627.867188 416.859375 627.035156 417.554688 C 626.203125 418.25 625.785156 419.035156 625.785156 419.910156 C 625.929688 420.828125 626.355469 421.605469 627.070313 422.242188 C 627.976563 422.878906 628.90625 423.195313 629.859375 423.195313 "/>
<path style=" stroke:none;fill-rule:nonzero;fill:rgb(11.799622%,37.599182%,63.499451%);fill-opacity:1;" d="M 618.714844 423.195313 C 619.714844 423.195313 620.617188 422.847656 621.429688 422.152344 C 622.238281 421.453125 622.644531 420.710938 622.644531 419.910156 C 622.644531 419.078125 622.238281 418.300781 621.429688 417.585938 C 620.617188 416.867188 619.714844 416.507813 618.714844 416.507813 C 617.664063 416.507813 616.726563 416.859375 615.890625 417.554688 C 615.058594 418.25 614.640625 419.035156 614.640625 419.910156 C 614.640625 420.789063 615.058594 421.554688 615.890625 422.210938 C 616.726563 422.867188 617.664063 423.195313 618.714844 423.195313 "/>
<path style=" stroke:none;fill-rule:nonzero;fill:rgb(11.799622%,37.599182%,63.499451%);fill-opacity:1;" d="M 664.574219 447.375 L 647.429688 439.675781 C 649.476563 437.964844 652.191406 436.609375 655.574219 435.613281 C 658.71875 434.699219 661.859375 434.242188 665.003906 434.242188 C 666.433594 434.242188 667.933594 434.359375 669.503906 434.601563 C 675.742188 435.554688 680.125 437.144531 682.648438 439.375 Z M 704.902344 443.046875 C 701.234375 447.085938 697.398438 449.722656 693.398438 450.957031 L 678.503906 450.957031 C 675.933594 450.917969 673.550781 450.640625 671.363281 450.121094 L 692.648438 440.808594 C 689.410156 437.144531 685.351563 434.269531 680.46875 432.183594 C 675.589844 430.09375 670.433594 429.046875 665.003906 429.046875 C 659.574219 429.046875 654.453125 430.101563 649.644531 432.210938 C 644.691406 434.359375 640.785156 437.304688 637.929688 441.046875 L 657.644531 450.121094 C 655.691406 450.679688 650.3125 450.957031 641.5 450.957031 L 632.929688 450.957031 L 632.929688 428.929688 C 628.453125 428.929688 624.121094 429.644531 619.929688 431.078125 C 612.785156 433.503906 606.808594 436.746094 602 440.808594 C 596.566406 445.304688 593.117188 450.421875 591.640625 456.152344 L 597.996094 456.152344 C 599.570313 451.335938 603.296875 446.71875 609.179688 442.300781 C 615.058594 437.882813 620.929688 435.375 626.785156 434.777344 L 626.785156 456.152344 L 646.644531 456.152344 C 654.789063 456.152344 660.882813 455.277344 664.933594 453.523438 C 668.648438 455.277344 674.71875 456.152344 683.148438 456.152344 L 693.433594 456.152344 L 693.433594 456.144531 C 696.28125 455.78125 699.507813 454.390625 703.113281 451.972656 C 706.304688 449.78125 708.804688 447.496094 710.613281 445.105469 L 710.613281 459.433594 C 708.378906 458.480469 706.921875 457.386719 706.257813 456.152344 L 698.898438 456.152344 C 700.898438 458.738281 703.472656 461.066406 706.613281 463.136719 C 710.234375 465.523438 713.566406 467.035156 716.617188 467.675781 L 716.617188 431.734375 L 710.402344 431.734375 C 710.402344 435.234375 708.566406 439.007813 704.902344 443.046875 "/>
<path style=" stroke:none;fill-rule:nonzero;fill:rgb(11.799622%,37.599182%,63.499451%);fill-opacity:1;" d="M 770.335938 435.734375 C 760.003906 431.277344 748.382813 429.046875 735.476563 429.046875 L 735.476563 434.242188 C 744.902344 434.242188 753.761719 435.574219 762.050781 438.242188 C 771.097656 441.1875 778.457031 445.425781 784.121094 450.957031 L 728.011719 450.957031 L 728.011719 411.015625 L 721.796875 411.015625 L 721.796875 456.152344 L 796.195313 456.152344 C 789.863281 447.234375 781.242188 440.429688 770.335938 435.734375 "/>
<path style=" stroke:none;fill-rule:nonzero;fill:rgb(11.799622%,37.599182%,63.499451%);fill-opacity:1;" d="M 761.976563 459.554688 C 760.882813 459.554688 759.894531 459.921875 759.015625 460.660156 C 758.132813 461.394531 757.691406 462.21875 757.691406 463.136719 C 757.691406 464.050781 758.132813 464.886719 759.015625 465.644531 C 759.894531 466.398438 760.882813 466.777344 761.976563 466.777344 C 762.976563 466.777344 763.953125 466.378906 764.90625 465.585938 C 765.859375 464.785156 766.335938 463.972656 766.335938 463.136719 C 766.335938 462.21875 765.882813 461.394531 764.980469 460.660156 C 764.074219 459.921875 763.074219 459.554688 761.976563 459.554688 "/>
<path style=" stroke:none;fill-rule:nonzero;fill:rgb(11.799622%,37.599182%,63.499451%);fill-opacity:1;" d="M 45.121094 489.484375 L 796.195313 489.484375 L 796.195313 485.316406 L 45.121094 485.316406 Z M 45.121094 489.484375 "/>
<path style=" stroke:none;fill-rule:nonzero;fill:rgb(11.799622%,37.599182%,63.499451%);fill-opacity:1;" d="M 45.125 510.332031 L 50.078125 510.332031 L 50.078125 532.125 C 50.078125 535.351563 50.871094 537.847656 52.453125 539.609375 C 54.039063 541.375 56.285156 542.253906 59.1875 542.253906 C 62.074219 542.253906 64.320313 541.445313 65.921875 539.820313 C 67.527344 538.195313 68.328125 535.910156 68.328125 532.957031 L 68.328125 510.332031 L 73.28125 510.332031 L 73.28125 532.625 C 73.28125 536.964844 72.015625 540.4375 69.480469 543.035156 C 66.949219 545.632813 63.574219 546.929688 59.359375 546.929688 C 55.050781 546.929688 51.601563 545.613281 49.011719 542.976563 C 46.417969 540.34375 45.125 536.457031 45.125 531.316406 "/>
<path style=" stroke:none;fill-rule:nonzero;fill:rgb(11.799622%,37.599182%,63.499451%);fill-opacity:1;" d="M 79.121094 545.734375 L 79.121094 522.773438 L 83.960938 522.773438 L 83.960938 526.585938 C 85.382813 525.046875 86.675781 523.917969 87.832031 523.203125 C 88.988281 522.488281 90.28125 522.132813 91.703125 522.132813 C 93.828125 522.132813 95.648438 522.820313 97.15625 524.191406 C 98.664063 525.566406 99.421875 527.214844 99.421875 529.144531 L 99.421875 545.734375 L 94.46875 545.734375 L 94.46875 530.566406 C 94.46875 529.324219 94.054688 528.292969 93.226563 527.476563 C 92.402344 526.660156 91.351563 526.253906 90.082031 526.253906 C 88.429688 526.253906 87.007813 526.933594 85.808594 528.296875 C 84.613281 529.660156 84.015625 531.308594 84.015625 533.238281 L 84.015625 545.734375 "/>
<path style=" stroke:none;fill-rule:nonzero;fill:rgb(11.799622%,37.599182%,63.499451%);fill-opacity:1;" d="M 106.054688 522.773438 L 110.953125 522.773438 L 110.953125 545.734375 L 106.054688 545.734375 Z M 104.660156 515.230469 C 104.660156 514.226563 105.039063 513.359375 105.796875 512.628906 C 106.558594 511.894531 107.460938 511.527344 108.503906 511.527344 C 109.527344 511.527344 110.414063 511.894531 111.164063 512.628906 C 111.914063 513.359375 112.289063 514.226563 112.289063 515.230469 C 112.289063 516.25 111.914063 517.125 111.164063 517.847656 C 110.414063 518.570313 109.527344 518.929688 108.503906 518.929688 C 107.460938 518.929688 106.558594 518.570313 105.796875 517.847656 C 105.039063 517.125 104.660156 516.25 104.660156 515.230469 "/>
<path style=" stroke:none;fill-rule:nonzero;fill:rgb(11.799622%,37.599182%,63.499451%);fill-opacity:1;" d="M 115.933594 522.773438 L 121.125 522.773438 L 127.84375 536.046875 L 134.371094 522.773438 L 139.59375 522.773438 L 127.765625 546.597656 "/>
<path style=" stroke:none;fill-rule:nonzero;fill:rgb(11.799622%,37.599182%,63.499451%);fill-opacity:1;" d="M 146.65625 531.316406 L 161.007813 531.316406 C 159.410156 528.164063 157.058594 526.585938 153.945313 526.585938 C 150.546875 526.585938 148.117188 528.164063 146.65625 531.316406 M 166.1875 535.183594 L 146.144531 535.183594 C 146.578125 537.542969 147.570313 539.261719 149.117188 540.347656 C 150.664063 541.433594 152.351563 541.976563 154.171875 541.976563 C 156.980469 541.976563 159.335938 540.835938 161.234375 538.554688 L 164.851563 541.226563 C 162.136719 544.65625 158.5 546.375 153.945313 546.375 C 150.453125 546.375 147.527344 545.203125 145.175781 542.867188 C 142.820313 540.527344 141.644531 537.625 141.644531 534.15625 C 141.644531 530.910156 142.835938 528.09375 145.21875 525.707031 C 147.601563 523.324219 150.507813 522.132813 153.945313 522.132813 C 157.324219 522.132813 160.21875 523.34375 162.628906 525.765625 C 165.039063 528.1875 166.226563 531.328125 166.1875 535.183594 "/>
<path style=" stroke:none;fill-rule:nonzero;fill:rgb(11.799622%,37.599182%,63.499451%);fill-opacity:1;" d="M 177.40625 522.773438 L 177.40625 527.503906 C 178.507813 525.609375 179.585938 524.242188 180.636719 523.398438 C 181.691406 522.554688 183.0625 522.132813 184.753906 522.132813 C 185.226563 522.132813 185.910156 522.242188 186.800781 522.464844 L 185.292969 527.308594 C 184.34375 527.125 183.71875 527.03125 183.414063 527.03125 C 181.742188 527.03125 180.34375 527.601563 179.214844 528.742188 C 178.085938 529.882813 177.519531 531.308594 177.519531 533.015625 L 177.519531 545.734375 L 172.566406 545.734375 L 172.566406 522.773438 "/>
<path style=" stroke:none;fill-rule:nonzero;fill:rgb(11.799622%,37.599182%,63.499451%);fill-opacity:1;" d="M 205.480469 525.5 L 202.175781 528.339844 C 201.324219 527.746094 200.582031 527.296875 199.957031 526.988281 C 199.328125 526.683594 198.589844 526.53125 197.734375 526.53125 C 195.722656 526.53125 194.71875 527.253906 194.71875 528.699219 C 194.71875 529.738281 195.992188 530.75 198.546875 531.726563 C 201.101563 532.707031 202.9375 533.78125 204.054688 534.945313 C 205.175781 536.113281 205.734375 537.523438 205.734375 539.171875 C 205.734375 541.101563 204.929688 542.78125 203.316406 544.21875 C 201.703125 545.65625 199.804688 546.375 197.621094 546.375 C 194.300781 546.375 191.574219 544.871094 189.449219 541.863281 L 193.351563 540.027344 C 194.71875 541.328125 196.140625 541.976563 197.621094 541.976563 C 198.648438 541.976563 199.542969 541.703125 200.3125 541.15625 C 201.082031 540.609375 201.464844 539.972656 201.464844 539.25 C 201.464844 537.96875 200.117188 536.816406 197.421875 535.792969 C 194.726563 534.773438 192.863281 533.738281 191.828125 532.6875 C 190.792969 531.640625 190.277344 530.347656 190.277344 528.808594 C 190.277344 526.898438 191.011719 525.308594 192.484375 524.039063 C 193.953125 522.769531 195.800781 522.132813 198.019531 522.132813 C 200.242188 522.132813 202.726563 523.253906 205.480469 525.5 "/>
<path style=" stroke:none;fill-rule:nonzero;fill:rgb(11.799622%,37.599182%,63.499451%);fill-opacity:1;" d="M 211.203125 522.773438 L 216.101563 522.773438 L 216.101563 545.734375 L 211.203125 545.734375 Z M 209.808594 515.230469 C 209.808594 514.226563 210.1875 513.359375 210.945313 512.628906 C 211.703125 511.894531 212.609375 511.527344 213.652344 511.527344 C 214.675781 511.527344 215.5625 511.894531 216.3125 512.628906 C 217.0625 513.359375 217.4375 514.226563 217.4375 515.230469 C 217.4375 516.25 217.0625 517.125 216.3125 517.847656 C 215.5625 518.570313 214.675781 518.929688 213.652344 518.929688 C 212.609375 518.929688 211.703125 518.570313 210.945313 517.847656 C 210.1875 517.125 209.808594 516.25 209.808594 515.230469 "/>
<path style=" stroke:none;fill-rule:nonzero;fill:rgb(11.799622%,37.599182%,63.499451%);fill-opacity:1;" d="M 225.097656 516.09375 L 230.050781 516.09375 L 230.050781 522.773438 L 234.949219 522.773438 L 234.949219 527.199219 L 230.050781 527.199219 L 230.050781 545.734375 L 225.097656 545.734375 L 225.097656 527.199219 L 221.195313 527.199219 L 221.195313 522.714844 L 225.097656 522.714844 "/>
<path style=" stroke:none;fill-rule:nonzero;fill:rgb(11.799622%,37.599182%,63.499451%);fill-opacity:1;" d="M 247.277344 518.542969 L 251.0625 510.804688 L 257.785156 510.804688 L 251.492188 518.542969 Z M 243.234375 531.316406 L 257.585938 531.316406 C 255.992188 528.164063 253.636719 526.585938 250.523438 526.585938 C 247.125 526.585938 244.695313 528.164063 243.234375 531.316406 M 262.765625 535.1875 L 242.722656 535.1875 C 243.160156 537.542969 244.148438 539.261719 245.699219 540.347656 C 247.246094 541.433594 248.929688 541.976563 250.753906 541.976563 C 253.558594 541.976563 255.914063 540.835938 257.8125 538.554688 L 261.429688 541.226563 C 258.714844 544.65625 255.078125 546.375 250.523438 546.375 C 247.03125 546.375 244.105469 545.203125 241.753906 542.867188 C 239.398438 540.527344 238.222656 537.625 238.222656 534.15625 C 238.222656 530.910156 239.414063 528.09375 241.796875 525.707031 C 244.179688 523.324219 247.089844 522.132813 250.523438 522.132813 C 253.902344 522.132813 256.796875 523.34375 259.207031 525.765625 C 261.617188 528.1875 262.804688 531.328125 262.765625 535.1875 "/>
<path style=" stroke:none;fill-rule:nonzero;fill:rgb(11.799622%,37.599182%,63.499451%);fill-opacity:1;" d="M 314.96875 508.800781 L 324.894531 545.734375 L 320.039063 545.734375 L 314.03125 523.167969 L 303.695313 547.097656 L 293.328125 522.96875 L 287.238281 545.734375 L 282.414063 545.734375 L 292.335938 508.800781 L 303.691406 535.226563 "/>
<path style=" stroke:none;fill-rule:nonzero;fill:rgb(11.799622%,37.599182%,63.499451%);fill-opacity:1;" d="M 348.582031 534.167969 C 348.582031 532.21875 347.824219 530.523438 346.304688 529.082031 C 344.785156 527.640625 342.980469 526.917969 340.894531 526.917969 C 338.75 526.917969 336.902344 527.648438 335.355469 529.109375 C 333.808594 530.566406 333.035156 532.3125 333.035156 534.335938 C 333.035156 536.269531 333.820313 537.960938 335.386719 539.410156 C 336.949219 540.863281 338.789063 541.585938 340.894531 541.585938 C 342.945313 541.585938 344.738281 540.84375 346.277344 539.355469 C 347.8125 537.871094 348.582031 536.140625 348.582031 534.167969 M 328.195313 534.15625 C 328.195313 531.019531 329.464844 528.234375 331.996094 525.792969 C 334.53125 523.351563 337.4375 522.132813 340.722656 522.132813 C 344.101563 522.132813 347.054688 523.332031 349.578125 525.738281 C 352.101563 528.140625 353.363281 530.945313 353.363281 534.15625 C 353.363281 537.382813 352.128906 540.226563 349.648438 542.6875 C 347.171875 545.144531 344.3125 546.375 341.066406 546.375 C 337.59375 546.375 334.578125 545.160156 332.023438 542.726563 C 329.472656 540.296875 328.195313 537.441406 328.195313 534.15625 "/>
<path style=" stroke:none;fill-rule:nonzero;fill:rgb(11.799622%,37.599182%,63.499451%);fill-opacity:1;" d="M 357.578125 509.609375 L 362.535156 509.609375 L 362.535156 526.53125 C 363.898438 524.988281 365.175781 523.871094 366.363281 523.175781 C 367.550781 522.480469 368.996094 522.132813 370.703125 522.132813 C 372.699219 522.132813 374.421875 522.878906 375.871094 524.371094 C 377.324219 525.867188 378.050781 527.652344 378.050781 529.730469 L 378.050781 545.734375 L 373.097656 545.734375 L 373.097656 531.09375 C 373.097656 529.648438 372.722656 528.488281 371.972656 527.613281 C 371.222656 526.742188 370.230469 526.308594 368.996094 526.308594 C 367.214844 526.308594 365.6875 526.964844 364.425781 528.28125 C 363.164063 529.601563 362.535156 531.195313 362.535156 533.070313 L 362.535156 545.734375 L 357.578125 545.734375 "/>
<path style=" stroke:none;fill-rule:nonzero;fill:rgb(11.799622%,37.599182%,63.499451%);fill-opacity:1;" d="M 404.671875 534.324219 C 404.671875 532.226563 403.902344 530.429688 402.363281 528.9375 C 400.820313 527.445313 398.976563 526.695313 396.828125 526.695313 C 394.738281 526.695313 392.910156 527.4375 391.351563 528.921875 C 389.792969 530.40625 389.011719 532.152344 389.011719 534.15625 C 389.011719 536.328125 389.773438 538.171875 391.296875 539.695313 C 392.816406 541.214844 394.660156 541.976563 396.828125 541.976563 C 398.976563 541.976563 400.820313 541.222656 402.363281 539.707031 C 403.902344 538.195313 404.671875 536.402344 404.671875 534.324219 M 403.988281 522.773438 L 408.945313 522.773438 L 408.945313 545.734375 L 403.988281 545.734375 L 403.988281 541.167969 C 401.578125 544.640625 398.589844 546.375 395.019531 546.375 C 391.925781 546.375 389.28125 545.1875 387.09375 542.8125 C 384.898438 540.4375 383.804688 537.550781 383.804688 534.15625 C 383.804688 530.945313 384.90625 528.140625 387.121094 525.738281 C 389.332031 523.332031 391.925781 522.132813 394.90625 522.132813 C 396.746094 522.132813 398.496094 522.625 400.144531 523.605469 C 401.796875 524.589844 403.078125 525.871094 403.988281 527.449219 "/>
<path style=" stroke:none;fill-rule:nonzero;fill:rgb(11.799622%,37.599182%,63.499451%);fill-opacity:1;" d="M 415.921875 545.734375 L 415.921875 522.773438 L 420.816406 522.773438 L 420.816406 526.308594 C 421.972656 524.859375 423.078125 523.800781 424.132813 523.132813 C 425.1875 522.464844 426.398438 522.132813 427.765625 522.132813 C 429.546875 522.132813 430.945313 522.511719 431.964844 523.273438 C 432.980469 524.035156 433.839844 525.25 434.539063 526.921875 C 435.777344 525.25 436.972656 524.035156 438.128906 523.273438 C 439.28125 522.511719 440.621094 522.132813 442.144531 522.132813 C 444.011719 522.132813 445.621094 522.8125 446.972656 524.179688 C 448.328125 525.542969 449.003906 527.160156 449.003906 529.035156 L 449.003906 545.734375 L 444.050781 545.734375 L 444.050781 530.285156 C 444.050781 527.746094 442.765625 526.472656 440.191406 526.472656 C 438.730469 526.472656 437.484375 527.125 436.464844 528.421875 C 435.445313 529.722656 434.9375 531.328125 434.9375 533.238281 L 434.9375 545.734375 L 429.984375 545.734375 L 429.984375 530.925781 C 429.984375 527.921875 428.722656 526.417969 426.195313 526.417969 C 424.695313 526.417969 423.425781 527.03125 422.382813 528.253906 C 421.339844 529.480469 420.816406 530.992188 420.816406 532.792969 L 420.816406 545.734375 "/>
<path style=" stroke:none;fill-rule:nonzero;fill:rgb(11.799622%,37.599182%,63.499451%);fill-opacity:1;" d="M 459.199219 531.316406 L 473.546875 531.316406 C 471.953125 528.164063 469.601563 526.585938 466.484375 526.585938 C 463.089844 526.585938 460.660156 528.164063 459.199219 531.316406 M 478.730469 535.183594 L 458.683594 535.183594 C 459.121094 537.542969 460.113281 539.261719 461.660156 540.347656 C 463.207031 541.433594 464.890625 541.976563 466.714844 541.976563 C 469.523438 541.976563 471.878906 540.835938 473.773438 538.554688 L 477.390625 541.226563 C 474.675781 544.65625 471.042969 546.375 466.484375 546.375 C 462.992188 546.375 460.070313 545.203125 457.714844 542.867188 C 455.363281 540.527344 454.1875 537.625 454.1875 534.15625 C 454.1875 530.910156 455.378906 528.09375 457.757813 525.707031 C 460.140625 523.324219 463.050781 522.132813 466.484375 522.132813 C 469.867188 522.132813 472.757813 523.34375 475.171875 525.765625 C 477.578125 528.1875 478.769531 531.328125 478.730469 535.183594 "/>
<path style=" stroke:none;fill-rule:nonzero;fill:rgb(11.799622%,37.599182%,63.499451%);fill-opacity:1;" d="M 504.695313 534.210938 C 504.695313 532.152344 503.925781 530.367188 502.386719 528.855469 C 500.84375 527.339844 499.011719 526.585938 496.882813 526.585938 C 494.675781 526.585938 492.808594 527.324219 491.273438 528.796875 C 489.742188 530.273438 488.980469 532.078125 488.980469 534.210938 C 488.980469 536.253906 489.757813 538.039063 491.316406 539.570313 C 492.878906 541.101563 494.695313 541.863281 496.765625 541.863281 C 498.972656 541.863281 500.84375 541.125 502.386719 539.636719 C 503.925781 538.15625 504.695313 536.34375 504.695313 534.210938 M 504.128906 509.609375 L 509.023438 509.609375 L 509.023438 545.734375 L 504.183594 545.734375 L 504.183594 540.945313 C 501.84375 544.566406 498.785156 546.375 495.003906 546.375 C 491.941406 546.375 489.320313 545.175781 487.132813 542.785156 C 484.945313 540.390625 483.855469 537.515625 483.855469 534.15625 C 483.855469 530.871094 484.964844 528.046875 487.191406 525.679688 C 489.414063 523.316406 492.066406 522.132813 495.144531 522.132813 C 496.988281 522.132813 498.710938 522.632813 500.304688 523.636719 C 501.902344 524.636719 503.175781 525.945313 504.128906 527.558594 "/>
<path style=" stroke:none;fill-rule:nonzero;fill:rgb(11.799622%,37.599182%,63.499451%);fill-opacity:1;" d="M 530.152344 510.332031 L 535.382813 510.332031 L 546.773438 535.445313 L 558.246094 510.332031 L 563.519531 510.332031 L 546.707031 546.929688 "/>
<path style=" stroke:none;fill-rule:nonzero;fill:rgb(11.799622%,37.599182%,63.499451%);fill-opacity:1;" d="M 604.265625 534.210938 C 604.265625 532.152344 603.492188 530.367188 601.953125 528.855469 C 600.414063 527.339844 598.578125 526.585938 596.449219 526.585938 C 594.242188 526.585938 592.375 527.324219 590.84375 528.796875 C 589.3125 530.273438 588.546875 532.078125 588.546875 534.210938 C 588.546875 536.253906 589.324219 538.039063 590.886719 539.570313 C 592.445313 541.101563 594.261719 541.863281 596.335938 541.863281 C 598.539063 541.863281 600.414063 541.125 601.953125 539.636719 C 603.492188 538.15625 604.265625 536.34375 604.265625 534.210938 M 603.695313 509.609375 L 608.59375 509.609375 L 608.59375 545.734375 L 603.75 545.734375 L 603.75 540.945313 C 601.414063 544.566406 598.351563 546.375 594.570313 546.375 C 591.511719 546.375 588.886719 545.175781 586.699219 542.785156 C 584.515625 540.390625 583.421875 537.515625 583.421875 534.15625 C 583.421875 530.871094 584.535156 528.046875 586.757813 525.679688 C 588.980469 523.316406 591.632813 522.132813 594.714844 522.132813 C 596.554688 522.132813 598.277344 522.632813 599.871094 523.636719 C 601.46875 524.636719 602.742188 525.945313 603.695313 527.558594 "/>
<path style=" stroke:none;fill-rule:nonzero;fill:rgb(11.799622%,37.599182%,63.499451%);fill-opacity:1;" d="M 620.09375 531.316406 L 634.445313 531.316406 C 632.851563 528.164063 630.496094 526.585938 627.382813 526.585938 C 623.984375 526.585938 621.558594 528.164063 620.09375 531.316406 M 639.628906 535.183594 L 619.582031 535.183594 C 620.019531 537.542969 621.011719 539.261719 622.558594 540.347656 C 624.105469 541.433594 625.789063 541.976563 627.613281 541.976563 C 630.421875 541.976563 632.773438 540.835938 634.671875 538.554688 L 638.289063 541.226563 C 635.574219 544.65625 631.9375 546.375 627.382813 546.375 C 623.890625 546.375 620.96875 545.203125 618.613281 542.867188 C 616.261719 540.527344 615.085938 537.625 615.085938 534.15625 C 615.085938 530.910156 616.273438 528.09375 618.65625 525.707031 C 621.039063 523.324219 623.949219 522.132813 627.382813 522.132813 C 630.761719 522.132813 633.65625 523.34375 636.066406 525.765625 C 638.480469 528.1875 639.664063 531.328125 639.628906 535.183594 "/>
<path style=" stroke:none;fill-rule:nonzero;fill:rgb(11.799622%,37.599182%,63.499451%);fill-opacity:1;" d="M 667.613281 514.5625 L 667.613281 526.917969 C 674.921875 527.066406 678.578125 525 678.578125 520.710938 C 678.578125 519.210938 678.148438 517.980469 677.296875 517.023438 C 676.441406 516.070313 675.300781 515.421875 673.878906 515.078125 C 672.453125 514.734375 670.367188 514.5625 667.613281 514.5625 M 662.660156 510.277344 L 670.519531 510.277344 C 674.429688 510.277344 677.613281 511.226563 680.070313 513.128906 C 682.527344 515.027344 683.757813 517.464844 683.757813 520.429688 C 683.757813 522.804688 682.964844 524.902344 681.375 526.71875 C 679.78125 528.539063 677.304688 529.816406 673.933594 530.558594 L 684.472656 545.734375 L 678.785156 545.734375 L 668.726563 531.148438 L 667.613281 531.148438 L 667.613281 545.734375 L 662.660156 545.734375 "/>
<path style=" stroke:none;fill-rule:nonzero;fill:rgb(11.799622%,37.599182%,63.499451%);fill-opacity:1;" d="M 708.703125 534.324219 C 708.703125 532.226563 707.929688 530.429688 706.390625 528.9375 C 704.851563 527.445313 703.007813 526.695313 700.855469 526.695313 C 698.765625 526.695313 696.9375 527.4375 695.378906 528.921875 C 693.820313 530.40625 693.039063 532.152344 693.039063 534.15625 C 693.039063 536.328125 693.800781 538.171875 695.324219 539.695313 C 696.84375 541.214844 698.6875 541.976563 700.855469 541.976563 C 703.007813 541.976563 704.851563 541.222656 706.390625 539.707031 C 707.929688 538.195313 708.703125 536.402344 708.703125 534.324219 M 708.019531 522.773438 L 712.972656 522.773438 L 712.972656 545.734375 L 708.019531 545.734375 L 708.019531 541.167969 C 705.605469 544.640625 702.617188 546.375 699.046875 546.375 C 695.953125 546.375 693.3125 545.1875 691.121094 542.8125 C 688.925781 540.4375 687.828125 537.550781 687.828125 534.15625 C 687.828125 530.945313 688.9375 528.140625 691.148438 525.738281 C 693.359375 523.332031 695.953125 522.132813 698.933594 522.132813 C 700.777344 522.132813 702.523438 522.625 704.171875 523.605469 C 705.824219 524.589844 707.105469 525.871094 708.019531 527.449219 "/>
<path style=" stroke:none;fill-rule:nonzero;fill:rgb(11.799622%,37.599182%,63.499451%);fill-opacity:1;" d="M 741.132813 534.15625 C 741.132813 532.058594 740.363281 530.265625 738.824219 528.769531 C 737.285156 527.277344 735.425781 526.53125 733.246094 526.53125 C 731.136719 526.53125 729.308594 527.285156 727.761719 528.796875 C 726.214844 530.3125 725.441406 532.097656 725.441406 534.15625 C 725.441406 536.308594 726.214844 538.121094 727.761719 539.597656 C 729.308594 541.070313 731.214844 541.808594 733.472656 541.808594 C 735.558594 541.808594 737.359375 541.058594 738.867188 539.554688 C 740.378906 538.050781 741.132813 536.253906 741.132813 534.15625 M 721.171875 509.609375 L 726.070313 509.609375 L 726.070313 527.308594 C 728.175781 523.859375 731.195313 522.132813 735.121094 522.132813 C 738.160156 522.132813 740.792969 523.320313 743.023438 525.695313 C 745.253906 528.070313 746.371094 530.890625 746.371094 534.15625 C 746.371094 537.421875 745.273438 540.273438 743.082031 542.714844 C 740.890625 545.152344 738.332031 546.375 735.410156 546.375 C 733.527344 546.375 731.742188 545.882813 730.054688 544.898438 C 728.363281 543.914063 727.035156 542.578125 726.070313 540.890625 L 726.070313 545.734375 L 721.171875 545.734375 "/>
<path style=" stroke:none;fill-rule:nonzero;fill:rgb(11.799622%,37.599182%,63.499451%);fill-opacity:1;" d="M 773.050781 534.324219 C 773.050781 532.226563 772.277344 530.429688 770.738281 528.9375 C 769.199219 527.445313 767.355469 526.695313 765.203125 526.695313 C 763.113281 526.695313 761.285156 527.4375 759.726563 528.921875 C 758.167969 530.40625 757.386719 532.152344 757.386719 534.15625 C 757.386719 536.328125 758.148438 538.171875 759.671875 539.695313 C 761.191406 541.214844 763.035156 541.976563 765.203125 541.976563 C 767.355469 541.976563 769.199219 541.222656 770.738281 539.707031 C 772.277344 538.195313 773.050781 536.402344 773.050781 534.324219 M 772.367188 522.773438 L 777.320313 522.773438 L 777.320313 545.734375 L 772.367188 545.734375 L 772.367188 541.167969 C 769.953125 544.640625 766.964844 546.375 763.394531 546.375 C 760.300781 546.375 757.660156 545.1875 755.46875 542.8125 C 753.273438 540.4375 752.179688 537.550781 752.179688 534.15625 C 752.179688 530.945313 753.285156 528.140625 755.496094 525.738281 C 757.707031 523.332031 760.300781 522.132813 763.28125 522.132813 C 765.125 522.132813 766.871094 522.625 768.519531 523.605469 C 770.171875 524.589844 771.453125 525.871094 772.367188 527.449219 "/>
<path style=" stroke:none;fill-rule:nonzero;fill:rgb(11.799622%,37.599182%,63.499451%);fill-opacity:1;" d="M 786.34375 516.09375 L 791.300781 516.09375 L 791.300781 522.773438 L 796.195313 522.773438 L 796.195313 527.199219 L 791.300781 527.199219 L 791.300781 545.734375 L 786.34375 545.734375 L 786.34375 527.199219 L 782.445313 527.199219 L 782.445313 522.714844 L 786.34375 522.714844 "/>
</g>
</svg>
